<svg xmlns="http://www.w3.org/2000/svg" width="120.144" height="19.52" viewBox="0 0 120.14448 19.520435"><g><path d="M22.761 4.84l-2.917 14.523h6.051l2.917-14.523h5.08l-2.916 14.523h6.052l1.493-7.502h4.355l-1.493 7.502h6.051l3.89-19.362h-6.051l-1.53 7.503h-4.356l1.53-7.503h-37.028l-3.889 19.362h14.763l.967-4.84h-8.716l.529-2.662h8.714l.877-4.357h-8.716l.528-2.663z"/><g><path d="M73.859 14.197c-.692 3.43-3.341 3.604-3.866 3.604-1.496 0-2.388-.864-2.388-2.31 0-.33.049-.779.132-1.229l1.639-8.165.007-.032h-1.936l-1.67 8.372-.022.12c-.072.378-.139.737-.139 1.202 0 2.249 1.477 3.759 3.679 3.759 1.61 0 2.904-.529 3.848-1.572l-.251 1.379-.006.032h1.908l2.637-13.261.005-.032h-1.962l-1.615 8.131z"/><path d="M87.056 5.907c-1.496 0-2.821.611-3.655 1.686l.3-1.493.006-.032h-1.908l-2.638 13.26-.006.032h1.937l1.615-8.132c.412-2.088 2.015-3.602 3.813-3.602.772 0 1.38.304 1.858.928l.018.024 1.572-1.408-.016-.02c-.727-.839-1.674-1.244-2.895-1.244z"/><path d="M55.048 7.755l-.006.032h6.606l-8.794 9.943-.004.005-.332 1.625h9.374l.334-1.72h-7.007l8.821-9.943.003-.006.331-1.623h-8.997z"/><path d="M94.783 6.068h-1.904l-2.667 13.26-.006.032h1.936z"/><path d="M116.461 5.908c-1.592 0-2.836.488-3.791 1.494l1.501-7.402h-1.937l-3.889 19.362h1.937l1.615-8.133c.692-3.428 3.365-3.602 3.894-3.602 1.48 0 2.364.863 2.364 2.309 0 .328-.05.775-.135 1.23l-1.643 8.197h1.935l1.698-8.376c.082-.445.136-.821.136-1.321-.001-2.248-1.483-3.759-3.684-3.759z"/><path d="M103.626 5.907c-3.512 0-5.977 2.474-6.765 6.787-.142.722-.191 1.53-.191 2.047 0 2.948 1.79 4.779 4.672 4.779 1.676 0 3.206-.642 4.424-1.859l.018-.018-1.117-1.362-.02-.024-.02.023c-1.027 1.081-1.948 1.522-3.177 1.522-1.374 0-2.843-.818-2.843-3.115 0-.719.085-1.313.213-1.983.207-1.127.675-2.702 1.712-3.797.825-.85 1.803-1.281 2.908-1.281 1.154 0 1.876.411 2.58 1.464l.017.026 1.421-1.201.02-.017-.015-.021c-.971-1.365-2.153-1.972-3.835-1.972z"/><path d="M95.538 2.42l.482-2.42h-1.933l-.489 2.42z"/><path d="M76.713 2.42l.48-2.42h-1.931l-.49 2.42z"/><path d="M71.55 2.42l.481-2.42h-1.931l-.491 2.42z"/></g></g></svg>