<svg width="201" height="74" viewBox="0 0 201 74" xmlns="http://www.w3.org/2000/svg"><defs><linearGradient x1="49.996%" y1="-.056%" x2="49.996%" y2="99.94%" id="a"><stop stop-color="#C0CF49" offset="0%"/><stop stop-color="#9CBA4B" offset="100%"/></linearGradient><linearGradient x1="49.977%" y1="-.021%" x2="49.977%" y2="100.021%" id="b"><stop stop-color="#C0CF49" offset="0%"/><stop stop-color="#9CBA4B" offset="100%"/></linearGradient><linearGradient x1="50.034%" y1="-.021%" x2="50.034%" y2="100.021%" id="c"><stop stop-color="#C0CF49" offset="0%"/><stop stop-color="#9CBA4B" offset="100%"/></linearGradient><linearGradient x1="49.857%" y1="-.056%" x2="49.857%" y2="99.94%" id="d"><stop stop-color="#C0CF49" offset="0%"/><stop stop-color="#9CBA4B" offset="100%"/></linearGradient></defs><g fill="none" fill-rule="evenodd"><path d="M.5 66.9V.4h16.4v51.9h27.9v14.6H0" transform="translate(0 4)" fill="url(#a)"/><path d="M14.7 73.1L47.6 8.3 33 .9.2 65.7z" transform="translate(55)" fill="url(#b)"/><path d="M14.7 73.1L47.5 8.3 33 .9.1 65.7z" transform="translate(93)" fill="url(#c)"/><path d="M16.3 15h9.2c4.5 0 7.1 3.3 7.1 6.7 0 3.5-2.6 6.7-7.1 6.7h-9.2V15zM0 .4v66.5h16.4V43.2h10c14.8 0 22.7-10.5 22.7-21.4C49.1 10.9 41.2.4 26.4.4H0z" transform="translate(151 4)" fill="url(#d)"/></g></svg>
