<svg xmlns="http://www.w3.org/2000/svg" viewBox="62 0 836 560"><path d="M121.2 299.1c24.8 0 47.7 18.9 47.7 51.6s-22.9 51.6-47.7 51.6c-24.9 0-48-18.9-48-51.6.2-32.7 23.1-51.6 48-51.6zm0 79.5c12 0 18-11 18-28s-6.1-28-18-28c-12.1 0-18 11-18 28 0 17.1 5.9 28 18 28zm96.9 28.9v28.6H189V301.3h23.8l2 9.8h.8c7.8-6.9 17.7-12.1 28-12.1 23.8 0 38.4 19.5 38.4 49.9 0 33.7-20.2 53.1-41.5 53.1-8.6 0-16.5-3.7-23.4-10.3l1 15.8zm15.7-29c10.1 0 18.2-8.8 18.2-29 0-17.7-5.4-26.6-17-26.6-5.9 0-11.1 2.7-16.9 8.9v40.3c5.2 4.7 10.8 6.4 15.7 6.4zm109.4-79.4c28 0 41.8 20.4 41.8 47.2 0 5.2-.7 9.9-1.2 12.3H325c2.5 14.8 12.5 21.4 25.6 21.4 7.2 0 14-2.2 21.2-6.6l9.8 17.7c-10.1 6.9-23.3 11.1-34.9 11.1-28.1 0-49.7-19-49.7-51.6-.2-31.8 22.6-51.5 46.2-51.5zm17 41.5c0-11.3-4.7-19.2-16.5-19.2-9.1 0-17 6.1-19 19.2h35.5zm45-39.1H429l2 12.5h.8c8.3-7.9 18.2-14.8 31.5-14.8 21.4 0 30.5 15 30.5 39.6v61h-29.2v-57.3c0-14.3-3.7-18.7-12.1-18.7-7.4 0-12 3.4-18.2 9.4v66.4h-29.2v-98.1h.1zm149.1-2.4c11 0 17.4 4 24.1 10.3l-1.2-15v-33.5h29.2v138.9h-23.8l-2-9.8h-.8c-6.9 6.9-16.7 12.1-26.1 12.1-24.4 0-40.3-19.4-40.3-51.6 0-32 20-51.4 40.9-51.4zm6.9 79.4c6.4 0 11.3-2.4 16-8.9v-40.3c-5.2-4.7-11-6.4-16.2-6.4-9.3 0-17.7 8.8-17.7 27.3.1 19.5 6.6 28.3 17.9 28.3zm122.7-42c-.7-8.8-4.9-14.3-15.5-14.3-8.3 0-16.7 3.4-26.1 8.9L632 311.9c12.5-7.6 26.6-12.8 42-12.8 25.1 0 39.1 14.3 39.1 44.3v56.3h-23.8l-2.2-10.1h-.7c-8.3 7.4-17.7 12.5-28.8 12.5-17.9 0-29.2-13.1-29.2-29.7.2-20.6 16.6-31.8 55.5-35.9zm-16.3 43.1c6.7 0 11.1-3.2 16.2-8.3v-17.2c-20.7 2.7-27.5 8.8-27.5 16.2 0 6.3 4.4 9.3 11.3 9.3zm74.3-55.2h-13.5v-21.6l15-1.2 3.4-26.1h24.1v26.1h23.6v22.8h-23.6v39.4c0 11.1 4.9 15.7 12.6 15.7 3.2 0 6.7-1 9.3-2l4.6 21.2c-5.2 1.5-12.3 3.5-21.7 3.5-24.4 0-33.9-15.3-33.9-38.1l.1-39.7zm121.3 12.1c-.7-8.8-4.9-14.3-15.5-14.3-8.3 0-16.7 3.4-26.1 8.9l-10.3-19.2c12.5-7.6 26.6-12.8 42-12.8 25.1 0 39.1 14.3 39.1 44.3v56.3h-23.8l-2.2-10.1h-.7c-8.3 7.4-17.7 12.5-28.8 12.5-17.9 0-29.2-13.1-29.2-29.7.2-20.6 16.6-31.8 55.5-35.9zM847 379.6c6.7 0 11.1-3.2 16.2-8.3v-17.2c-20.7 2.7-27.5 8.8-27.5 16.2.1 6.3 4.3 9.3 11.3 9.3z" fill="#009688"/><path d="M89.7 524.7c8.3 0 14.5 6.4 14.5 15 0 8.4-6.2 14.8-14.5 14.8s-14.5-6.4-14.5-14.8c0-8.5 6.2-15 14.5-15zm38.4 3.9c7.2 5.6 14 8.4 20.7 8.4 7.1 0 10.3-2.5 10.3-6.7 0-5.4-8.1-7.8-16.3-11-9.8-3.7-21.2-10.4-21.2-23.6 0-14.8 12.1-25.1 30.8-25.1 12.3 0 21.4 5.1 28.3 10.3l-10.6 14.3c-5.9-4.2-11.3-6.7-17-6.7-6.2 0-9.1 2.2-9.1 6.2 0 5.2 7.4 7.1 15.7 10.3 10.3 3.7 21.7 9.4 21.7 24.1s-11.5 26-33 26c-10.4 0-22.8-4.6-30.8-11.1l10.5-15.4zm61.5-56.3h23.6l7.8 37.2c1.3 7.9 2.2 15.7 3.5 23.8h.7c1.5-8.1 2.7-16.2 4.7-23.8l8.9-37.2h20.6l9.1 37.2c2 7.9 3.4 15.7 5.1 23.8h.7c1.5-8.1 2.2-15.8 3.7-23.8l7.6-37.2h22.1l-19.2 80.4h-27.8l-7.2-32c-1.7-7.4-2.9-14.8-4.4-23.4h-.7c-1.5 8.6-2.5 16-4 23.4l-7.1 32h-27.5l-20.2-80.4zm130.3-24.2c0-7.2 5.9-12.3 13.8-12.3 8.1 0 13.8 5.1 13.8 12.3 0 7.2-5.7 12.5-13.8 12.5-7.9-.1-13.8-5.3-13.8-12.5zm2 24.2h23.8v80.4h-23.8v-80.4zm48.2 56.3c7.2 5.6 14 8.4 20.7 8.4 7.1 0 10.3-2.5 10.3-6.7 0-5.4-8.1-7.8-16.3-11-9.8-3.7-21.2-10.4-21.2-23.6 0-14.8 12.1-25.1 30.8-25.1 12.3 0 21.4 5.1 28.3 10.3l-10.6 14.3c-5.9-4.2-11.3-6.7-17-6.7-6.2 0-9.1 2.2-9.1 6.2 0 5.2 7.4 7.1 15.7 10.3 10.3 3.7 21.7 9.4 21.7 24.1s-11.5 26-33 26c-10.4 0-22.8-4.6-30.8-11.1l10.5-15.4zm71.8 0c7.2 5.6 14 8.4 20.7 8.4 7.1 0 10.3-2.5 10.3-6.7 0-5.4-8.1-7.8-16.3-11-9.8-3.7-21.2-10.4-21.2-23.6 0-14.8 12.1-25.1 30.8-25.1 12.3 0 21.4 5.1 28.3 10.3l-10.6 14.3c-5.9-4.2-11.3-6.7-17-6.7-6.2 0-9.1 2.2-9.1 6.2 0 5.2 7.4 7.1 15.7 10.3 10.3 3.7 21.7 9.4 21.7 24.1s-11.5 26-33 26c-10.4 0-22.8-4.6-30.8-11.1l10.5-15.4z" fill="#000100"/><path fill="#009688" d="M138.9 58.8c29.7-21.2 71.1-18.5 97.7 8.1s29.2 68.1 8.1 97.7l28.3 28.3c36.6-45.3 33.7-112.1-8.4-154.2S155.9-6.1 110.4 30.3l28.5 28.5z"/><path d="M225.9 183c-29.5 20.2-70.3 17.2-96.6-8.9-26.3-26.3-29.2-66.9-8.9-96.6L92.1 49.2C56.7 94.5 59.7 160.4 101.3 202c22.6 22.6 52.1 33.9 81.7 33.9 25.1 0 50.2-8.3 71.1-24.4L225.9 183z"/></svg>