<svg xmlns="http://www.w3.org/2000/svg" viewBox="0 0 362 52"><defs><style>.a,.c{fill:none}.a{stroke:#05348b;stroke-width:2px}.b{fill:#05348b}</style></defs><title>opentransport</title><path class="a" d="M4.48 1.05H47.5l.17.01.17.01.17.02.17.03.17.04.16.05.16.05.16.06.15.07.14.08.15.08.14.09.13.09.13.1.13.11.12.12.11.12.11.12.1.13.1.14.08.14.09.14.07.15.07.15.06.15.06.16.04.16.04.17.03.17.03.17.01.18V47.67l-.01.17-.03.17-.03.17-.04.17-.04.16-.06.16-.06.16-.07.15-.07.15-.09.14-.08.14-.1.13-.1.14-.11.12-.11.12-.12.11-.13.11-.13.1-.13.1-.14.09-.15.08-.14.08-.15.06-.16.07-.16.05-.16.05-.17.04-.17.03-.17.02-.17.01H4.3l-.17-.01-.17-.02-.17-.03-.17-.04-.16-.05-.16-.05-.16-.07-.15-.06-.15-.08-.14-.08-.14-.09-.13-.1-.13-.1-.13-.11-.11-.11-.12-.12-.11-.12-.1-.14-.09-.13-.09-.14-.09-.14-.07-.15-.07-.15-.06-.16-.05-.16-.05-.16-.04-.17-.03-.17-.02-.17-.01-.17-.01-.17V4.48l.01-.17.01-.18.02-.17.03-.17.04-.17.05-.16.05-.16.06-.15.07-.15.07-.15.09-.14.09-.14.09-.14.1-.13.11-.12.12-.12.11-.12.13-.11.13-.1.13-.09.14-.09.14-.08.15-.08.15-.07.16-.06.16-.05.16-.05.17-.04.17-.03.17-.02.17-.01.18-.01z"/><path class="b" d="M37.32 18.43h6.8v-1.51H13.08L13 17H12.7l-.1.05h-.1l-.1.05-.09.05-.09.07-.09.06-.08.07-.08.07-.08.07-.08.08-.07.08-.07.09-.07.09-.06.09-.06.1-.06.1-.05.1v.52L7.95 30.76V39.74H23.79V37.92l.06-.34.08-.33.09-.33.11-.32.13-.31L25 36l.15-.31.17-.29.17-.28.2-.28.21-.26.22-.25.23-.24.24-.23.25-.22.26-.2.27-.2.28-.18.29-.17.3-.15.31-.14.32-.12.32-.11.33-.09.34-.08.34-.06h2.12l.34.06.34.08.33.09.32.11.32.12.31.14.3.15.29.17.28.18.27.2.26.2.25.22.24.23.23.24.22.25.2.26.2.28.18.28.17.29.15.31.14.31.12.31.11.32.1.33.08.33.06.34V39.75h5.32V29H36.83V18.63h.52zM15 31.27v.53H9.69l-.05-.05v-.63l3.2-11.9v-.05l.08-.06.08-.05H14.06v12.38zm4-.27V31.66H17.76V18.87H19V31zm3.93 0V31.66H21.68V18.87H22.37V31zm12.16-2.72v.48l-.05.05H24.67V18.63H34.87l.05.05v.18L35 19v9.22z"/><path class="c" d="M37.32 18.43h6.8v-1.51H13.63l-.11.01-.11.01-.11.02-.11.02-.11.02-.11.03-.1.04-.11.04-.1.04-.1.05-.1.05-.09.05-.09.05-.1.07-.09.06-.08.07-.08.07-.08.08-.08.07-.07.09-.08.08-.06.09-.06.09-.06.09-.06.1-.06.1-.04.1-.05.1-.04.11-.03.11-.04.1-3.17 11.83-.02.09-.02.09-.02.08-.01.09-.01.09-.01.09v.09l-.01.08v7.67l.01.07v.06l.01.06.01.06.01.06.02.05.02.06.02.06.02.05.03.05.03.05.03.05.04.05.03.05.04.04.04.04.04.04.05.03.04.04.05.03.05.04.05.03.05.03.05.02.06.02.05.02.06.02.06.01.06.01.06.01h14.3l.06-.01.06-.01.06-.01.06-.02.05-.02.06-.02.05-.02.05-.03.06-.03.04-.04.05-.03.05-.04.04-.03.04-.04.04-.04.04-.04.04-.05.03-.05.03-.05.03-.05.03-.05.02-.05.02-.06.02-.06.02-.05.01-.06.01-.06.01-.06v-.06l.01-.07v-.02l-.01-.03v-.1l.01-.36.03-.35.04-.35.06-.34.09-.33.09-.34.11-.32.12-.31.14-.31.15-.3.18-.29.17-.28.2-.28.2-.26.22-.25.23-.24.24-.23.26-.22.26-.21.27-.19.28-.18.29-.17.31-.15.3-.14.32-.13.32-.11.33-.09.34-.08.34-.06.35-.04.34-.03.36-.01.36.01.35.03.35.04.35.06.34.08.32.09.32.11.32.13.31.14.3.15.29.17.28.18.28.19.26.21.25.22.24.23.23.24.22.25.2.26.2.28.18.28.17.29.15.3.14.31.12.31.11.32.1.34.08.33.06.34.04.35.03.35.01.36v.28l.01.06.01.06.02.06.01.05.02.06.02.06.02.05.03.05.03.05.03.05.04.05.03.05.04.04.04.04.04.04.04.03.05.04.05.03.05.04.05.03.05.03.05.02.06.02.06.02.05.02.06.01.06.01.06.01h4.81V29.01h-6.84l-.03-.01h-.04l-.04-.01h-.04l-.03-.02-.04-.01-.03-.01-.07-.03-.06-.04-.06-.05-.05-.04-.05-.05-.05-.06-.04-.07-.02-.06-.02-.04-.01-.03-.01-.04-.01-.03-.01-.04v-.04l-.01-.04V19.15l.01-.04v-.04l.01-.03.02-.07.03-.08.02-.06.04-.06.05-.07.05-.04.05-.05.06-.05.06-.04.07-.03.07-.02.07-.02.08-.02h.07z"/><path class="c" d="M15.03 31.27v.09l-.01.07-.02.07-.03.07-.03.06-.04.07-.04.05-.05.06-.06.05-.05.04-.07.04-.06.03-.07.03-.07.02h-.04l-.04.01H10.08l-.04-.01h-.03l-.04-.01-.04-.01-.03-.02-.04-.01-.07-.03-.06-.04-.05-.04-.06-.05-.05-.06-.04-.05-.04-.07-.03-.06-.01-.03-.02-.04v-.04l-.02-.03v-.04l-.01-.03v-.13l.01-.05v-.05l.02-.05 3.19-11.9.02-.05.01-.05.02-.05.02-.04.02-.05.02-.04.03-.04.03-.05.02-.04.03-.04.04-.03.03-.04.03-.04.04-.03.03-.03.05-.03.07-.06.09-.05.04-.02.05-.02.04-.02.05-.01.05-.02.04-.01.05-.01.05-.01.05-.01h.05l.05-.01H13.89l.06.01.06.01.06.01.06.01.05.01.06.03.06.02.05.02.05.03.05.02.05.04.04.03.05.04.04.03.05.05.04.04.03.04.04.05.03.04.04.05.02.05.03.06.03.05.02.05.02.06.01.06.02.06.01.05.01.06v11.91zM18.96 30.98v.06l-.01.06-.01.06v.06l-.02.05-.01.07-.02.05-.02.06-.03.05-.03.05-.02.05-.04.05-.03.05-.04.05-.04.04-.03.04-.05.04-.04.04-.05.04-.04.02-.05.04-.05.02-.05.04-.05.02-.06.02-.06.02-.05.02-.06.01-.06.01h-.06l-.06.01h-.13l-.06-.01h-.06l-.06-.01-.06-.01-.06-.02-.05-.02-.06-.02-.05-.02-.05-.04-.06-.02-.04-.04-.05-.02-.05-.04-.04-.04-.04-.04-.04-.04-.04-.04-.03-.05-.04-.05-.03-.05-.03-.05-.03-.05-.02-.05-.03-.06-.01-.05-.02-.07-.01-.05-.01-.06-.01-.06-.01-.06V19.43l.01-.07.01-.06.01-.05.01-.06.02-.06.01-.06.03-.05.02-.05.03-.06.03-.05.03-.05.04-.04.03-.05.04-.04.04-.04.04-.05.04-.03.05-.04.05-.03.04-.04.06-.02.05-.03.05-.02.06-.02.05-.03.06-.01.06-.01.06-.01.06-.01.06-.01h.13l.06.01.06.01.06.01.06.01.05.01.06.03.06.02.05.02.05.03.05.02.05.04.04.03.05.04.04.03.05.05.03.04.04.04.04.05.03.04.04.05.02.05.03.06.03.05.02.05.02.06.01.06.02.06v.05l.01.06.01.07v11.55zM22.89 30.98v.06l-.01.06-.01.06v.06l-.02.05-.01.07-.02.05-.02.06-.03.05-.03.05-.02.05-.04.05-.03.05-.04.05-.04.04-.03.04-.05.04-.04.04-.05.04-.04.02-.05.04-.05.02-.06.04-.05.02-.05.02-.06.02-.06.02-.05.01-.07.01h-.06l-.05.01h-.13l-.06-.01h-.06l-.06-.01-.06-.01-.06-.02-.05-.02-.06-.02-.05-.02-.05-.04-.06-.02-.05-.04-.04-.02-.05-.04-.04-.04-.04-.04-.04-.04-.04-.04-.03-.05-.04-.05-.03-.05-.03-.05-.03-.05-.02-.05-.03-.06-.02-.05-.01-.07-.01-.05-.01-.06-.01-.06-.01-.06V19.43l.01-.07.01-.06.01-.05.01-.06.01-.06.02-.06.03-.05.02-.05.03-.06.03-.05.03-.05.04-.04.03-.05.04-.04.04-.04.04-.05.04-.03.05-.04.04-.03.05-.04.06-.02.05-.03.05-.02.06-.02.05-.03.06-.01.06-.01.06-.01.06-.01.06-.01h.13l.05.01.06.01.07.01.05.01.06.01.06.03.05.02.05.02.06.03.05.02.05.04.04.03.05.04.04.03.05.05.03.04.04.04.04.05.03.04.04.05.02.05.03.06.03.05.02.05.02.06.01.06.02.06v.05l.01.06.01.07v11.55zM35.05 28.25v.08l-.01.08-.02.07-.03.07-.02.06-.04.07-.05.06-.05.05-.05.04-.06.05-.06.04-.07.03-.07.02-.07.02-.04.01h-.04l-.03.01H25.12l-.04-.01h-.04l-.04-.01h-.03l-.04-.02-.03-.01-.04-.01-.06-.03-.07-.04-.05-.05-.06-.04-.05-.05-.04-.06-.04-.07-.03-.06-.01-.04-.02-.03-.01-.04v-.03l-.01-.04-.01-.04V19.11l.01-.04.01-.03.01-.07.03-.08.03-.06.04-.06.04-.07.05-.04.06-.05.05-.05.07-.04.06-.03.07-.02.07-.02.08-.02H34.37l.08.02.07.02.07.02.07.03.06.04.06.05.05.05.05.04.05.07.04.06.02.06.03.08.02.07.01.07v9.14z"/><path class="a" d="M190.48 1.05h43.02l.17.01.17.01.17.02.17.03.17.04.16.05.16.05.15.06.16.07.14.08.15.08.14.09.13.09.14.1.12.11.12.12.11.12.11.12.1.13.1.14.09.14.08.14.07.15.07.15.06.15.06.16.04.16.04.17.03.17.03.17.01.18.01.17V47.5l-.01.17-.01.17-.03.18-.03.16-.04.17-.04.16-.06.16-.06.16-.07.15-.07.15-.08.14-.09.14-.1.14-.1.13-.11.12-.11.12-.12.11-.12.11-.14.1-.13.1-.14.09-.15.08-.14.08-.16.06-.15.07-.16.05-.16.05-.17.04-.17.03-.17.02-.17.01H190.3l-.17-.01-.18-.02-.16-.03-.17-.04-.16-.05-.16-.05-.16-.07-.15-.06-.15-.08-.14-.08-.14-.09-.14-.1-.12-.1-.13-.11-.11-.11-.12-.12-.11-.12-.1-.13-.1-.14-.08-.14-.09-.14-.07-.15-.07-.15-.06-.16-.05-.16-.05-.16-.04-.17-.03-.16-.02-.18-.01-.17-.01-.17V4.48l.01-.17.01-.18.02-.17.03-.17.04-.17.05-.16.05-.16.06-.15.07-.15.07-.15.09-.14.08-.14.1-.14.1-.13.11-.12.12-.12.11-.12.13-.11.12-.1.14-.09.14-.09.14-.08.15-.08.15-.07.16-.06.16-.05.16-.05.17-.04.16-.03.18-.02.17-.01.18-.01z"/><path class="b" d="M228.61 18.43h1.51v-1.51H218.23l-.05.05V18.24l.05.05h1.54L219 23h-9.29v4.5h2.64l-.74 4.5H193.4l4.53 8.6 3.24-.68H204.68l5.06 1.08.27.05H213.94l.28-.05 5.08-1.07H222.81l5.07 1.07.28.05h1.96V32H228.19l-.05-.05-.05-.06V27.78l.05-.05h2.05V23H228.23l-.05-.05-.05-.05V18.68l.05-.05h.54zm-9.52 12.84v.48l-.05.05H213.59v-.61l.51-3v-.42H219.01l.05.05V31.31zm7.41 0v.53h-.17l-.33.2H220.76V27.73h5.59v3.54zm0-9.07v.54l-.05.05H221.09l-.05-.05v-.67l.5-3v-.42h4.95v3.54z"/><path class="b" d="M227.85 19.19v-.51l.05-.05h2.05v-1.71H218.23l-.05.05V18.24l.05.05h1.54L219 23h-9.29v4.5h2.64l-.74 4.5H193.4l4.53 8.6 3.24-.68H204.68l5.06 1.08.27.05H213.94l.28-.05 5.08-1.07H222.81l5.07 1.07.28.05h1.96V32H228.19l-.05-.05-.05-.06V27.78l.05-.05h2.05V23H228.23l-.05-.05-.05-.05v-3.71zm-8.77 12.09v.48l-.05.05H213.58v-.61l.51-3v-.42H219l.05.05V31.32zm7.41 0v.53h-.17L226 32H220.76V27.73h5.59v3.54zm0-12.09V22.75l-.05.05H221.08l-.05-.05v-.67l.5-3v-.42h4.95v.52zM222.56 41.36l-.18-.02-.19-.02-.19-.02-.19-.01-.19-.01-.19-.02h-.19l-.19-.01-.19.01h-.19l-.19.02-.19.01-.18.01-.19.02-.19.02-.19.02-5.02 1.06-.16.04-.15.02-.16.03-.16.03-.16.02-.16.02-.15.02-.16.02-.16.01-.16.02-.16.01-.16.01-.16.01h-.15l-.17.01h-.32l-.15-.01h-.17l-.16-.01-.15-.01-.16-.01-.16-.02-.16-.01-.16-.02-.16-.02-.16-.02-.15-.02-.16-.03-.16-.03-.15-.02-.16-.04-5.02-1.06-.19-.02-.19-.02-.19-.02-.18-.01-.2-.01-.19-.02h-.18l-.19-.01-.19.01h-.19l-.19.02-.19.01-.19.01-.19.02-.19.02-.18.02-5.02 1.06-.16.04-.16.02-.16.03-.15.03-.16.02-.16.02-.15.02-.16.02-.16.01-.16.02-.16.01-.16.01-.16.01h-.16l-.16.01h-.16v1.43h.36l.18-.01.17-.01.18-.01.18-.01.18-.02.17-.01.18-.02.18-.02.17-.03.18-.02.17-.03.18-.03.17-.04.18-.03 4.96-1.05.16-.01.16-.02.16-.02.16-.01.16-.01.16-.01.16-.01h.32l.16.01.16.01.15.01.16.01.17.02.15.02.16.01 4.97 1.05.17.03.18.04.17.03.18.03.17.02.18.03.18.02.17.02.18.01.18.02.18.01.17.01.18.01.18.01h.71l.18-.01.18-.01.18-.01.17-.01.18-.02.18-.01.17-.02.18-.02.18-.03.17-.02.18-.03.17-.03.18-.04.17-.03 4.97-1.05.15-.01.16-.02.16-.02.16-.01.16-.01.16-.01.16-.01h.32l.16.01.16.01.16.01.16.01.16.02.16.02.16.01 4.96 1.05.17.03.18.04.17.03.18.03.18.02.17.03.18.02.17.02.18.01.18.02.18.01.17.01.18.01.18.01h.36v-1.43h-.16l-.16-.01h-.16l-.16-.01-.16-.01-.16-.01-.16-.02-.16-.01-.15-.02-.16-.02-.16-.02-.16-.02-.16-.03-.15-.03-.16-.02-.16-.04-5.02-1.06z"/><path class="b" d="M222.56 41.36l-.18-.02-.19-.02-.19-.02-.19-.01-.19-.01-.19-.02h-.19l-.19-.01-.19.01h-.19l-.19.02-.19.01-.18.01-.19.02-.19.02-.19.02-5.02 1.06-.16.04-.15.02-.16.03-.16.03-.16.02-.16.02-.15.02-.16.02-.16.01-.16.02-.16.01-.16.01-.16.01h-.15l-.17.01h-.32l-.15-.01h-.17l-.16-.01-.15-.01-.16-.01-.16-.02-.16-.01-.16-.02-.16-.02-.16-.02-.15-.02-.16-.03-.16-.03-.15-.02-.16-.04-5.02-1.06-.19-.02-.19-.02-.19-.02-.18-.01-.2-.01-.19-.02h-.18l-.19-.01-.19.01h-.19l-.19.02-.19.01-.19.01-.19.02-.19.02-.18.02-5.02 1.06-.16.04-.16.02-.16.03-.15.03-.16.02-.16.02-.15.02-.16.02-.16.01-.16.02-.16.01-.16.01-.16.01h-.16l-.16.01h-.16v1.43h.36l.18-.01.17-.01.18-.01.18-.01.18-.02.17-.01.18-.02.18-.02.17-.03.18-.02.17-.03.18-.03.17-.04.18-.03 4.96-1.05.16-.01.16-.02.16-.02.16-.01.16-.01.16-.01.16-.01h.32l.16.01.16.01.15.01.16.01.17.02.15.02.16.01 4.97 1.05.17.03.18.04.17.03.18.03.17.02.18.03.18.02.17.02.18.01.18.02.18.01.17.01.18.01.18.01h.71l.18-.01.18-.01.18-.01.17-.01.18-.02.18-.01.17-.02.18-.02.18-.03.17-.02.18-.03.17-.03.18-.04.17-.03 4.97-1.05.15-.01.16-.02.16-.02.16-.01.16-.01.16-.01.16-.01h.32l.16.01.16.01.16.01.16.01.16.02.16.02.16.01 4.96 1.05.17.03.18.04.17.03.18.03.18.02.17.03.18.02.17.02.18.01.18.02.18.01.17.01.18.01.18.01h.36v-1.43h-.16l-.16-.01h-.16l-.16-.01-.16-.01-.16-.01-.16-.02-.16-.01-.15-.02-.16-.02-.16-.02-.16-.02-.16-.03-.15-.03-.16-.02-.16-.04-5.02-1.06z"/><path class="a" d="M66.48 1.06H109.67l.17.01.17.02.17.04.17.03.16.05.16.05.16.07.15.06.15.08.14.08.14.09.13.1.14.1.12.11.12.11.11.12.11.12.1.13.1.14.08.14.09.14.07.15.07.15.07.16.05.15.04.17.05.16.02.17.03.17.01.18v43.36l-.01.17-.03.17-.02.17-.05.17-.04.16-.05.16-.07.16-.07.15-.07.15-.09.14-.08.14-.1.13-.1.14-.11.12-.11.12-.12.11-.12.11-.14.1-.13.1-.14.09-.14.08-.15.08-.15.06-.16.07-.16.05-.16.05-.17.04-.17.03-.17.02-.17.01H66.31l-.17-.01-.18-.02-.17-.03-.16-.04-.17-.05-.15-.05-.16-.07-.15-.06-.15-.08-.14-.08-.14-.09-.14-.1-.13-.1-.12-.11-.12-.11-.11-.12-.11-.12-.11-.14-.09-.13-.09-.14-.08-.14-.08-.15-.06-.15-.07-.16-.05-.16-.05-.16-.03-.17-.04-.17-.02-.17-.01-.17V4.31l.01-.18.02-.17.04-.17.03-.16.05-.17.05-.15.07-.16.06-.15.08-.15.08-.14.09-.14.09-.14.11-.13.11-.12.11-.12.12-.11.12-.11.13-.1.14-.1.14-.09.14-.08.15-.08.15-.06.16-.07.15-.05.17-.05.16-.03.17-.04.18-.02.17-.01h.17z"/><path class="b" d="M91.17 10.24V9.32h-.16L91 9.1H90.24l-7.82 7.82H74.88l-.08.05-.09.05-.08.06-.08.06-.08.07-.07.07-.07.07-.07.07-.07.08-.06.08-.06.08-.06.08-.05.09-.05.09v.48L70.1 30.9V37.24l.05.05h35.95V29H98.31l-.05-.05V18.61h7.86v-1.53H84.34l6.83-6.83zm-13.76 21V31.73l-.05.05-.05.05H77.19L77 32H71.82l-.05-.05v-.75l3.65-12v-.08l.05-.08.05-.07.06-.07.06-.06.07-.05.07-.05H76.94V31.27zm3.66-.22v.53H80.05V18.92h1.02v.05L81 19V31.05zm5-11.86v-.55H96.2l.05.06V28.7l-.05.05-.05.05H86.38l-.06-.05v-9.56zm-1.36.23V31.58H83.74V18.92H84.71V19.41z"/><path class="b" d="M98 19.19V18.61h7.86v-1.53H84.34l6.83-6.83V9.32h-.16L91 9.1H90.24l-7.82 7.82H74.88l-.08.05-.09.05-.08.06-.08.06-.08.07-.07.07-.07.07-.07.07-.07.08-.06.08-.06.08-.06.08-.05.09-.05.09v.48L70.1 30.9V37.24l.05.05h35.95V29H98.31l-.05-.05v-9.76zm-20.63.23V31.75l-.05.05-.05.05H77.15L77 32H71.82l-.05-.05v-.75l3.65-12v-.08l.05-.08.05-.07.06-.07.06-.06.07-.05.07-.05H76.94V19.23zm3.66 0V31.58H80.01V18.92h1.02v.05L81 19v.39zm3.66 0V31.58H83.72V18.92H84.69V19.41zm11.94 8.83V28.74l-.05.05-.05.05H86.38l-.06-.05V18.61H96.45l.05.06v9.55zM87.29 39.44h-7.62l.06.14.07.14.07.14.08.13.08.14.09.12.09.12.09.12.09.12.11.11.1.11.11.1.12.1.11.1.12.09.12.08.13.08.13.08.13.07.14.07.13.06.14.06.14.06.15.04.15.05.14.03.15.03.15.03.16.02.15.01.16.01.15.01.16-.01.15-.01.16-.01.15-.02.15-.03.15-.03.15-.03.14-.05.14-.04.15-.06.14-.06.13-.06.14-.07.13-.07.13-.08.13-.08.12-.08.12-.09.12-.1.11-.1.11-.1.1-.11.11-.11.09-.12.1-.12.08-.12.09-.12.08-.14.08-.13.07-.14.07-.14.06-.14z"/><path class="b" d="M87.29 39.44h-7.62l.06.14.07.14.07.14.08.13.08.14.09.12.09.12.09.12.09.12.11.11.1.11.11.1.12.1.11.1.12.09.12.08.13.08.13.08.13.07.14.07.13.06.14.06.14.06.15.04.15.05.14.03.15.03.15.03.16.02.15.01.16.01.15.01.16-.01.15-.01.16-.01.15-.02.15-.03.15-.03.15-.03.14-.05.14-.04.15-.06.14-.06.13-.06.14-.07.13-.07.13-.08.13-.08.12-.08.12-.09.12-.1.11-.1.11-.1.1-.11.11-.11.09-.12.1-.12.08-.12.09-.12.08-.14.08-.13.07-.14.07-.14.06-.14zM96.35 39.44h-7.61l.06.14.07.14.07.14.08.13.07.14.09.12.09.12.09.12.1.12.1.11.11.11.11.1.11.1.12.1.12.09.12.08.13.08.13.08.13.07.13.07.14.06.14.06.14.06.14.04.15.05.15.03.15.03.15.03.15.02.16.01.15.01.16.01.15-.01.16-.01.15-.01.16-.02.15-.03.15-.03.14-.03.15-.05.14-.04.15-.06.14-.06.13-.06.13-.07.14-.07.13-.08.12-.08.12-.08.12-.09.12-.1.12-.1.1-.1.11-.11.11-.11.09-.12.1-.12.08-.12.09-.12.08-.14.07-.13.08-.14.06-.14.06-.14z"/><path class="b" d="M96.35 39.44h-7.61l.06.14.07.14.07.14.08.13.07.14.09.12.09.12.09.12.1.12.1.11.11.11.11.1.11.1.12.1.12.09.12.08.13.08.13.08.13.07.13.07.14.06.14.06.14.06.14.04.15.05.15.03.15.03.15.03.15.02.16.01.15.01.16.01.15-.01.16-.01.15-.01.16-.02.15-.03.15-.03.14-.03.15-.05.14-.04.15-.06.14-.06.13-.06.13-.07.14-.07.13-.08.12-.08.12-.08.12-.09.12-.1.12-.1.1-.1.11-.11.11-.11.09-.12.1-.12.08-.12.09-.12.08-.14.07-.13.08-.14.06-.14.06-.14zM69.86 42.76h36.26v1.36H69.86v-1.36z"/><path class="b" d="M69.86 42.76h36.26v1.36H69.86v-1.36zM69.86 7.86h36.26v.76H69.86v-.76z"/><path class="b" d="M69.86 7.86h36.26v.76H69.86v-.76z"/><path class="a" d="M314.1 1.06h43.98l.15.01.15.02.15.03.15.03.14.04.14.05.14.05.13.06.13.07.13.07.12.08.12.08.12.1.11.09.1.1.1.1.09.11.1.12.08.12.08.12.07.13.07.13.06.13.05.14.05.14.04.14.03.15.03.15.02.15.01.15V48.05l-.01.16-.02.15-.03.14-.03.15-.04.15-.05.14-.05.13-.06.14-.07.13-.07.13-.08.12-.08.12-.1.11-.09.11-.1.11-.1.09-.11.1-.12.09-.12.08-.12.08-.13.07-.13.07-.13.06-.14.05-.14.05-.14.05-.15.03-.15.03-.15.02-.15.01H313.95l-.16-.01-.15-.02-.14-.03-.15-.03-.15-.05-.14-.05-.13-.05-.14-.06-.13-.07-.12-.07-.13-.08-.11-.08-.12-.09-.11-.1-.11-.09-.09-.11-.1-.11-.09-.11-.08-.12-.08-.12-.07-.13-.07-.13-.06-.14-.05-.13-.05-.14-.05-.15-.03-.15-.03-.14-.02-.15-.01-.16V3.92l.01-.15.02-.15.03-.15.03-.15.05-.14.05-.14.05-.14.06-.13.07-.13.07-.13.08-.12.08-.12.09-.12.1-.11.09-.1.11-.1.11-.09.12-.1.11-.08.13-.08.12-.07.13-.07.14-.06.13-.05.14-.05.15-.04.15-.03.14-.03.15-.02.16-.01h.15z"/><path class="b" d="M353.39 36.35h-.19l-34.75-8.69H318.18V9.06L318 9V8.57l.05-.06.05-.06.05-.06.06-.05.06-.05.06-.05h.34L319 8h.9l32.94 8.4H353.55v19.65l-.05.05-.05.05H353zm-26.82-24.42v-.52H319.79l-.05.05V21.48l.05.05H326.5v-9.6zm8.69 2.22V13.67l-.05-.05H328.46V23.75l.05.05h6.62l.05-.05.05-.05V14.15zm8.68 2.22v-.53h-6.76V25.97H343.91v-9.6zm8.69 2.22v-.52h-6.76V28.17H352.57v-9.59z"/><path class="b" d="M354.14 17.89V16.85H353.43L320 7.95h-.82L319 8H318.58l-.06.05-.06.05-.06.05-.05.06-.05.06-.05.06V8.68L318 9V27.38h.27l34.75 8.69H353.66l.05-.05.05-.05V17.78zm-27.57-6V21.45H319.61l-.05-.05V11.46l.05-.05H326.39v.52zm8.69 11.28v.45l-.05.05-.05.05h-6.62l-.05-.05V13.62h6.75l.05.05v9.55zm8.68-6.89V25.88h-6.61L337 26V15.83H343.76v.49zm8.69 2.26V28.09h-6.7V18.06H352.69v.52zM317.88 33.49l36.27 9.07v1.56l-36.27-9.07v-1.56z"/><path class="b" d="M317.88 33.49l36.27 9.07v1.56l-36.27-9.07v-1.56zM345.73 36.86v.12l-.01.11-.02.11-.02.11-.02.1-.03.11-.03.1-.04.1-.05.09-.05.1-.05.09-.06.09-.06.08-.06.09-.07.08-.07.07-.08.07-.08.08-.08.06-.09.06-.09.06-.09.05-.09.05-.1.04-.1.04-.1.04-.11.03-.1.02-.11.02-.11.01-.11.01-.12.01-.1-.01-.12-.01-.11-.01-.11-.02-.1-.02-.11-.03-.1-.04-.1-.04-.1-.04-.09-.05-.09-.05-.09-.06-.08-.06-.09-.06-.08-.08-.07-.07-.08-.07-.06-.08-.07-.09-.06-.08-.05-.09-.06-.09-.05-.1-.04-.09-.04-.1-.04-.1-.03-.11-.02-.1-.02-.11-.01-.11-.02-.11V36.75l.02-.11.01-.11.02-.11.02-.1.03-.11.04-.1.04-.1.04-.09.05-.1.06-.09.05-.09.06-.09.07-.08.06-.08.08-.08.07-.07.08-.07.09-.06.08-.06.09-.06.09-.05.09-.05.1-.05.1-.03.1-.04.11-.03.1-.02.11-.02.11-.01.12-.02h.22l.11.02.11.01.11.02.1.02.11.03.1.04.1.03.1.05.09.05.09.05.09.06.09.06.08.06.08.07.08.07.07.08.07.08.06.08.06.09.06.09.05.09.05.1.05.09.04.1.03.1.03.11.02.1.02.11.02.11.01.11v.11z"/><path class="b" d="M345.73 36.86v.12l-.01.11-.02.11-.02.11-.02.1-.03.11-.03.1-.04.1-.05.09-.05.1-.05.09-.06.09-.06.08-.06.09-.07.08-.07.07-.08.07-.08.08-.08.06-.09.06-.09.06-.09.05-.09.05-.1.04-.1.04-.1.04-.11.03-.1.02-.11.02-.11.01-.11.01-.12.01-.1-.01-.12-.01-.11-.01-.11-.02-.1-.02-.11-.03-.1-.04-.1-.04-.1-.04-.09-.05-.09-.05-.09-.06-.08-.06-.09-.06-.08-.08-.07-.07-.08-.07-.06-.08-.07-.09-.06-.08-.05-.09-.06-.09-.05-.1-.04-.09-.04-.1-.04-.1-.03-.11-.02-.1-.02-.11-.01-.11-.02-.11V36.75l.02-.11.01-.11.02-.11.02-.1.03-.11.04-.1.04-.1.04-.09.05-.1.06-.09.05-.09.06-.09.07-.08.06-.08.08-.08.07-.07.08-.07.09-.06.08-.06.09-.06.09-.05.09-.05.1-.05.1-.03.1-.04.11-.03.1-.02.11-.02.11-.01.12-.02h.22l.11.02.11.01.11.02.1.02.11.03.1.04.1.03.1.05.09.05.09.05.09.06.09.06.08.06.08.07.08.07.07.08.07.08.06.08.06.09.06.09.05.09.05.1.05.09.04.1.03.1.03.11.02.1.02.11.02.11.01.11v.11zM351.17 38.34V38.57l-.02.1-.01.11-.03.11-.03.1-.04.1-.03.1-.05.1-.05.09-.05.1-.06.08-.06.09-.06.08-.07.08-.07.08-.08.07-.08.07-.08.07-.09.06-.09.05-.09.06-.09.04-.1.05-.1.04-.1.03-.11.03-.1.02-.11.03-.11.01-.11.01H348.87l-.11-.01-.11-.01-.11-.03-.1-.02-.1-.03-.11-.03-.1-.04-.09-.05-.1-.04-.09-.06-.09-.05-.08-.06-.09-.07-.08-.07-.07-.07-.07-.08-.07-.08-.07-.08-.06-.09-.06-.08-.05-.1-.05-.09-.04-.1-.04-.1-.04-.1-.03-.1-.02-.11-.02-.11-.02-.1v-.12l-.01-.11.01-.11v-.11l.02-.11.02-.11.02-.11.03-.1.04-.1.04-.1.04-.1.05-.09.05-.1.06-.08.06-.09.07-.08.07-.08.07-.08.07-.07.08-.07.09-.07.08-.06.09-.05.09-.06.1-.05.09-.04.1-.04.11-.03.1-.03.1-.02.11-.03.11-.01.11-.01H349.1l.11.01.11.01.11.03.1.02.11.03.1.03.1.04.1.04.09.05.09.06.09.05.09.06.08.07.08.07.08.07.07.08.07.08.06.08.06.09.06.08.05.1.05.09.05.1.03.1.04.1.03.1.03.11.01.11.02.11v.22z"/><path class="b" d="M351.17 38.34V38.57l-.02.1-.01.11-.03.11-.03.1-.04.1-.03.1-.05.1-.05.09-.05.1-.06.08-.06.09-.06.08-.07.08-.07.08-.08.07-.08.07-.08.07-.09.06-.09.05-.09.06-.09.04-.1.05-.1.04-.1.03-.11.03-.1.02-.11.03-.11.01-.11.01H348.87l-.11-.01-.11-.01-.11-.03-.1-.02-.1-.03-.11-.03-.1-.04-.09-.05-.1-.04-.09-.06-.09-.05-.08-.06-.09-.07-.08-.07-.07-.07-.07-.08-.07-.08-.07-.08-.06-.09-.06-.08-.05-.1-.05-.09-.04-.1-.04-.1-.04-.1-.03-.1-.02-.11-.02-.11-.02-.1v-.12l-.01-.11.01-.11v-.11l.02-.11.02-.11.02-.11.03-.1.04-.1.04-.1.04-.1.05-.09.05-.1.06-.08.06-.09.07-.08.07-.08.07-.08.07-.07.08-.07.09-.07.08-.06.09-.05.09-.06.1-.05.09-.04.1-.04.11-.03.1-.03.1-.02.11-.03.11-.01.11-.01H349.1l.11.01.11.01.11.03.1.02.11.03.1.03.1.04.1.04.09.05.09.06.09.05.09.06.08.07.08.07.08.07.07.08.07.08.06.08.06.09.06.08.05.1.05.09.05.1.03.1.04.1.03.1.03.11.01.11.02.11v.22zM330.74 33.12v.11l-.01.11-.02.11-.02.11-.02.1-.03.11-.03.1-.04.1-.05.09-.05.1-.05.09-.05.09-.06.09-.07.08-.07.08-.07.08-.08.07-.08.07-.08.06-.09.06-.08.06-.1.05-.09.05-.1.04-.1.04-.1.04-.1.03-.11.02-.11.02-.11.02h-.11l-.11.01-.11-.01h-.11l-.11-.02-.12-.02-.1-.02-.11-.03-.1-.04-.1-.04-.09-.04-.1-.05-.09-.05-.09-.06-.08-.06-.08-.06-.09-.07-.07-.07-.07-.08-.07-.08-.07-.08-.06-.09-.05-.09-.06-.09-.05-.1-.04-.09-.04-.1-.04-.1-.02-.11-.03-.1-.02-.11-.01-.11-.01-.11V33l.01-.11.01-.11.02-.11.03-.1.02-.11.04-.09.04-.11.04-.09.05-.1.06-.09.05-.09.06-.08.07-.09.07-.08.07-.07.07-.08.09-.07.08-.06.08-.06.09-.06.09-.05.1-.05.09-.04.1-.04.1-.04.11-.03.1-.02.12-.02.11-.01.11-.01h.22l.11.01.11.01.11.02.11.02.1.03.1.04.1.04.1.04.09.05.1.05.08.06.09.06.08.06.08.07.08.08.07.07.07.08.07.09.06.08.05.09.05.09.05.1.05.09.04.11.03.09.03.11.02.1.02.11.02.11.01.11v.12z"/><path class="b" d="M330.74 33.12v.11l-.01.11-.02.11-.02.11-.02.1-.03.11-.03.1-.04.1-.05.09-.05.1-.05.09-.05.09-.06.09-.07.08-.07.08-.07.08-.08.07-.08.07-.08.06-.09.06-.08.06-.1.05-.09.05-.1.04-.1.04-.1.04-.1.03-.11.02-.11.02-.11.02h-.11l-.11.01-.11-.01h-.11l-.11-.02-.12-.02-.1-.02-.11-.03-.1-.04-.1-.04-.09-.04-.1-.05-.09-.05-.09-.06-.08-.06-.08-.06-.09-.07-.07-.07-.07-.08-.07-.08-.07-.08-.06-.09-.05-.09-.06-.09-.05-.1-.04-.09-.04-.1-.04-.1-.02-.11-.03-.1-.02-.11-.01-.11-.01-.11V33l.01-.11.01-.11.02-.11.03-.1.02-.11.04-.09.04-.11.04-.09.05-.1.06-.09.05-.09.06-.08.07-.09.07-.08.07-.07.07-.08.09-.07.08-.06.08-.06.09-.06.09-.05.1-.05.09-.04.1-.04.1-.04.11-.03.1-.02.12-.02.11-.01.11-.01h.22l.11.01.11.01.11.02.11.02.1.03.1.04.1.04.1.04.09.05.1.05.08.06.09.06.08.06.08.07.08.08.07.07.07.08.07.09.06.08.05.09.05.09.05.1.05.09.04.11.03.09.03.11.02.1.02.11.02.11.01.11v.12zM325.17 31.75v.12l-.01.1-.01.12-.02.1-.02.11-.03.1-.04.1-.04.1-.04.1-.05.1-.05.09-.06.09-.06.08-.06.09-.07.08-.07.07-.08.07-.08.07-.09.07-.08.06-.09.06-.09.05-.1.05-.09.04-.11.04-.1.03-.1.03-.1.03-.11.02-.12.01-.1.01H322.87l-.11-.01-.11-.01-.11-.02-.1-.03-.11-.03-.1-.03-.1-.04-.1-.04-.09-.05-.09-.05-.09-.06-.09-.06-.08-.07-.08-.07-.08-.07-.07-.07-.07-.08-.06-.09-.06-.08-.06-.09-.05-.09-.05-.1-.04-.1-.05-.1-.03-.1-.03-.1-.03-.11-.01-.1-.02-.12v-.1l-.01-.12.01-.11v-.11l.02-.11.01-.11.03-.11.03-.1.03-.1.05-.1.04-.1.05-.09.05-.09.06-.09.06-.09.06-.08.07-.08.07-.08.08-.07.08-.06.08-.07.09-.07.09-.05.09-.05.09-.05.1-.05.1-.04.1-.03.11-.03.1-.02.11-.02.11-.02h.11l.11-.01.12.01h.1l.12.02.11.02.1.02.1.03.1.03.11.04.09.05.1.05.09.05.09.05.08.07.09.07.08.06.08.07.07.08.07.08.06.08.06.09.06.09.05.09.05.09.04.1.04.1.04.1.03.1.02.11.02.11.01.11.01.11v.11z"/><path class="b" d="M325.17 31.75v.12l-.01.1-.01.12-.02.1-.02.11-.03.1-.04.1-.04.1-.04.1-.05.1-.05.09-.06.09-.06.08-.06.09-.07.08-.07.07-.08.07-.08.07-.09.07-.08.06-.09.06-.09.05-.1.05-.09.04-.11.04-.1.03-.1.03-.1.03-.11.02-.12.01-.1.01H322.87l-.11-.01-.11-.01-.11-.02-.1-.03-.11-.03-.1-.03-.1-.04-.1-.04-.09-.05-.09-.05-.09-.06-.09-.06-.08-.07-.08-.07-.08-.07-.07-.07-.07-.08-.06-.09-.06-.08-.06-.09-.05-.09-.05-.1-.04-.1-.05-.1-.03-.1-.03-.1-.03-.11-.01-.1-.02-.12v-.1l-.01-.12.01-.11v-.11l.02-.11.01-.11.03-.11.03-.1.03-.1.05-.1.04-.1.05-.09.05-.09.06-.09.06-.09.06-.08.07-.08.07-.08.08-.07.08-.06.08-.07.09-.07.09-.05.09-.05.09-.05.1-.05.1-.04.1-.03.11-.03.1-.02.11-.02.11-.02h.11l.11-.01.12.01h.1l.12.02.11.02.1.02.1.03.1.03.11.04.09.05.1.05.09.05.09.05.08.07.09.07.08.06.08.07.07.08.07.08.06.08.06.09.06.09.05.09.05.09.04.1.04.1.04.1.03.1.02.11.02.11.01.11.01.11v.11z"/><path class="a" d="M252.48 1.05h43.02l.17.01.18.01.16.02.17.03.17.04.16.05.16.05.15.06.16.07.14.08.15.08.14.09.13.09.14.1.12.11.12.12.11.12.11.12.1.13.1.14.09.13.08.14.07.16.07.15.06.15.06.16.04.16.04.17.03.17.03.17.01.18.01.17V47.5l-.01.17-.01.17-.03.18-.03.16-.04.17-.04.16-.06.16-.06.16-.07.15-.07.15-.08.14-.09.14-.1.14-.1.13-.11.12-.11.12-.12.11-.12.11-.14.1-.13.1-.14.09-.15.08-.14.08-.16.06-.15.07-.16.05-.16.05-.17.04-.17.03-.16.02-.18.01H252.3l-.17-.01-.18-.02-.16-.03-.17-.04-.16-.05-.16-.05-.16-.07-.15-.06-.15-.08-.14-.08-.14-.09-.14-.1-.12-.1-.13-.11-.11-.11-.12-.12-.11-.12-.1-.13-.1-.14-.08-.14-.09-.14-.07-.15-.07-.15-.06-.16-.05-.16-.05-.16-.04-.17-.03-.16-.02-.18-.01-.17-.01-.17V4.48l.01-.17.01-.18.02-.17.03-.17.04-.17.05-.16.05-.16.06-.15.07-.15.07-.16.09-.14.08-.13.1-.14.1-.13.11-.12.12-.12.11-.12.13-.11.12-.1.14-.09.14-.09.14-.08.15-.08.15-.07.16-.06.16-.05.16-.05.17-.04.16-.03.18-.02.17-.01.18-.01zM171.9 1.06h-43.98l-.15.01-.15.02-.15.03-.15.03-.14.04-.14.05-.14.05-.13.06-.13.07-.13.07-.12.08-.12.08-.12.1-.11.09-.1.1-.1.1-.09.11-.1.12-.08.12-.08.12-.07.13-.07.13-.06.13-.05.14-.05.14-.04.14-.03.15-.03.15-.02.15-.01.15V48.05l.01.16.02.15.03.14.03.15.04.15.05.14.05.13.06.14.07.13.07.13.08.12.08.12.1.11.09.11.1.11.1.09.11.1.12.09.12.08.12.08.13.07.13.07.13.06.14.05.14.05.14.05.15.03.15.03.15.02.15.01H172.05l.16-.01.15-.02.14-.03.15-.03.15-.05.14-.05.13-.05.14-.06.13-.07.13-.07.12-.08.11-.08.12-.09.11-.1.11-.09.09-.11.1-.11.09-.11.08-.12.08-.12.07-.13.07-.13.06-.14.05-.13.05-.14.05-.15.03-.15.03-.14.02-.15.01-.16V3.92l-.01-.15-.02-.15-.03-.15-.03-.15-.05-.14-.05-.14-.05-.14-.06-.13-.07-.13-.07-.13-.08-.12-.08-.12-.09-.12-.1-.11-.09-.1-.11-.1-.11-.09-.12-.1-.11-.08-.12-.08-.13-.07-.13-.07-.14-.06-.13-.05-.14-.05-.15-.04-.15-.03-.14-.03-.15-.02-.16-.01h-.15z"/><path class="b" d="M132.43 39.81H132.32l-.04-.01-.04-.01-.03-.01-.03-.01-.04-.02-.07-.03-.06-.03-.06-.05-.05-.05-.05-.05-.04-.06-.04-.07-.03-.06-.02-.03-.01-.04v-.03l-.02-.04v-.04l-.01-.04v-.18l.65-4.5h7.84v5.36h-7.74z"/><path class="b" d="M132.43 39.81H132.32l-.04-.01-.04-.01-.03-.01-.03-.01-.04-.02-.07-.03-.06-.03-.06-.05-.05-.05-.05-.05-.04-.06-.04-.07-.03-.06-.02-.03-.01-.04v-.03l-.02-.04v-.04l-.01-.04v-.18l.65-4.5h7.84v5.36h-7.74zM150.73 18.32h17.39v-1.4h-14.2l4.46-3L150 9.14l-8.34 4.76 4.46 3H135.78l-.09.05-.09.05-.08.06-.08.06-.08.06-.08.07-.07.07-.07.07-.06.07-.06.08-.06.08-.05.09v.09l-.05.09V18.57l-2 14.15h35.59v-7.19h-18.23l-.05-.05V24.55l.05-.05h17.9v-1.4h-17.9l-.05-.05V22.11l.05-.05h17.9v-1.4h-17.9l-.05-.05V19.66l.05-.05h.51zm-10.11 6.46v.52l-.05.05H135.72l-.05-.05-.05-.05v-.55L136 19v-.38H140.37v6.23zm8-7.86L144.33 14l5.67-3.21 5.66 3.21-4.3 2.91z"/><path class="b" d="M150 19v-.43l.05-.05h17.9v-1.4h-14.2l4.46-3L150 9.14l-8.34 4.76 4.46 3H135.78l-.09.05-.09.05-.08.06-.08.06-.08.06-.08.07-.07.07-.07.07-.06.07-.06.08-.06.08-.05.09v.09l-.05.09V18.57l-2 14.15h35.59v-7.19h-18.23l-.05-.05V24.55l.05-.05h17.9v-1.4h-17.9l-.05-.05V22.11l.05-.05h17.9v-1.4h-17.9l-.05-.05V19zm-9.37.06V25.28l-.05.05H135.73l-.05-.05-.05-.05v-.55L136 19v-.38H140.37v.52zm8-2.15l-4.3-2.91 5.67-3.21 5.66 3.21-4.3 2.91zM158.47 38.12l-.01-.2-.01-.19-.03-.2-.03-.19-.05-.19-.05-.18-.06-.18-.07-.17-.07-.17-.09-.17-.09-.16-.1-.15-.11-.16-.12-.14-.12-.15-.12-.13-.14-.13-.14-.12-.14-.11-.15-.11-.16-.1-.16-.09-.17-.08-.17-.08-.17-.07-.18-.06-.19-.05-.18-.05-.19-.03-.19-.03-.2-.01h-.39l-.2.01-.19.03-.19.03-.19.05-.18.05-.18.06-.17.07-.18.08-.17.08-.15.09-.16.1-.15.11-.15.11-.14.12-.13.13-.13.13-.12.15-.11.14-.11.16-.1.15-.09.16-.09.17-.08.17-.07.17-.06.18-.05.18-.04.19-.04.19-.02.2-.02.19v.39l.02.2.02.19.04.19.04.19.05.18.06.18.07.18.08.17.09.16.09.17.1.15.11.15.11.15.12.14.13.13.13.13.14.12.15.11.15.11.16.1.15.1.17.08.18.08.17.07.18.06.18.05.19.04.19.03.19.03.2.02h.39l.2-.02.19-.03.19-.03.18-.04.19-.05.18-.06.17-.07.17-.08.17-.08.16-.1.16-.1.15-.11.14-.11.14-.12.14-.13.12-.13.12-.14.12-.15.11-.15.1-.15.09-.17.09-.16.07-.17.07-.18.06-.18.05-.18.05-.19.03-.19.03-.19.01-.2.01-.19z"/><path class="b" d="M158.47 38.12l-.01-.2-.01-.19-.03-.2-.03-.19-.05-.19-.05-.18-.06-.18-.07-.17-.07-.17-.09-.17-.09-.16-.1-.15-.11-.16-.12-.14-.12-.15-.12-.13-.14-.13-.14-.12-.14-.11-.15-.11-.16-.1-.16-.09-.17-.08-.17-.08-.17-.07-.18-.06-.19-.05-.18-.05-.19-.03-.19-.03-.2-.01h-.39l-.2.01-.19.03-.19.03-.19.05-.18.05-.18.06-.17.07-.18.08-.17.08-.15.09-.16.1-.15.11-.15.11-.14.12-.13.13-.13.13-.12.15-.11.14-.11.16-.1.15-.09.16-.09.17-.08.17-.07.17-.06.18-.05.18-.04.19-.04.19-.02.2-.02.19v.39l.02.2.02.19.04.19.04.19.05.18.06.18.07.18.08.17.09.16.09.17.1.15.11.15.11.15.12.14.13.13.13.13.14.12.15.11.15.11.16.1.15.1.17.08.18.08.17.07.18.06.18.05.19.04.19.03.19.03.2.02h.39l.2-.02.19-.03.19-.03.18-.04.19-.05.18-.06.17-.07.17-.08.17-.08.16-.1.16-.1.15-.11.14-.11.14-.12.14-.13.12-.13.12-.14.12-.15.11-.15.1-.15.09-.17.09-.16.07-.17.07-.18.06-.18.05-.18.05-.19.03-.19.03-.19.01-.2.01-.19zM149.38 38.12v-.2l-.02-.19-.02-.2-.04-.19-.04-.19-.05-.18-.06-.18-.07-.17-.08-.17-.08-.17-.1-.16-.1-.15-.1-.16-.12-.14-.12-.15-.13-.13-.13-.13-.14-.12-.15-.11-.15-.11-.15-.1-.16-.09-.17-.08-.17-.08-.18-.07-.18-.06-.18-.05-.18-.05-.19-.03-.2-.03-.2-.01h-.39l-.19.01-.2.03-.19.03-.18.05-.19.05-.18.06-.17.07-.17.08-.17.08-.16.09-.15.1-.16.11-.14.11-.14.12-.13.13-.13.13-.12.15-.12.14-.11.16-.09.15-.1.16-.08.17-.08.17-.07.17-.06.18-.05.18-.04.19-.04.19-.02.2-.02.19v.39l.02.2.02.19.04.19.04.19.05.18.06.18.07.18.08.17.08.16.1.17.09.15.11.15.12.15.12.14.13.13.13.13.14.12.14.11.16.11.15.1.16.1.17.08.17.08.17.07.18.06.19.05.18.04.19.03.2.03.19.02h.39l.2-.02.2-.03.19-.03.18-.04.18-.05.18-.06.18-.07.17-.08.17-.08.16-.1.15-.1.15-.11.15-.11.14-.12.13-.13.13-.13.12-.14.12-.15.1-.15.1-.15.1-.17.08-.16.08-.17.07-.18.06-.18.05-.18.04-.19.04-.19.02-.19.02-.2v-.19z"/><path class="b" d="M149.38 38.12v-.2l-.02-.19-.02-.2-.04-.19-.04-.19-.05-.18-.06-.18-.07-.17-.08-.17-.08-.17-.1-.16-.1-.15-.1-.16-.12-.14-.12-.15-.13-.13-.13-.13-.14-.12-.15-.11-.15-.11-.15-.1-.16-.09-.17-.08-.17-.08-.18-.07-.18-.06-.18-.05-.18-.05-.19-.03-.2-.03-.2-.01h-.39l-.19.01-.2.03-.19.03-.18.05-.19.05-.18.06-.17.07-.17.08-.17.08-.16.09-.15.1-.16.11-.14.11-.14.12-.13.13-.13.13-.12.15-.12.14-.11.16-.09.15-.1.16-.08.17-.08.17-.07.17-.06.18-.05.18-.04.19-.04.19-.02.2-.02.19v.39l.02.2.02.19.04.19.04.19.05.18.06.18.07.18.08.17.08.16.1.17.09.15.11.15.12.15.12.14.13.13.13.13.14.12.14.11.16.11.15.1.16.1.17.08.17.08.17.07.18.06.19.05.18.04.19.03.2.03.19.02h.39l.2-.02.2-.03.19-.03.18-.04.18-.05.18-.06.18-.07.17-.08.17-.08.16-.1.15-.1.15-.11.15-.11.14-.12.13-.13.13-.13.12-.14.12-.15.1-.15.1-.15.1-.17.08-.16.08-.17.07-.18.06-.18.05-.18.04-.19.04-.19.02-.19.02-.2v-.19zM131.85 7.85v.76h36.27v-.76h-36.27z"/><path class="b" d="M131.85 7.85v.76h36.27v-.76h-36.27zM168.12 44.12v-1.43h-36.27v1.43h36.27z"/><path class="b" d="M168.12 44.12v-1.43h-36.27v1.43h36.27zM168.12 34.67v-.22h-8.31v5.36h8.31v-5.14z"/><path class="b" d="M168.12 34.67v-.22h-8.31v5.36h8.31v-5.14zM267.66 12.98l13.17-2.25.06-.01.06-.02.06-.01.06-.02.06-.03.06-.02.05-.02.06-.03.05-.04.05-.03.05-.03.05-.04.04-.04.04-.04.05-.04.04-.05.03-.05.04-.04.03-.05.04-.05.03-.06.03-.05.02-.05.02-.05.02-.07.02-.05.01-.06.02-.06.01-.06V9.5l.01-.06v-.13l-.01-.08-.01-.06-.01-.07-.02-.07-.01-.06-.03-.07-.02-.06-.03-.06-.03-.06-.04-.06-.03-.05-.04-.06-.04-.05-.05-.05-.05-.05-.04-.04-.06-.04-.05-.04-.05-.05-.06-.03-.06-.03-.06-.03-.07-.03-.06-.03-.07-.02-.06-.02-.07-.01-.07-.01-.07-.01-.08-.01h-.19l-.06.01-.06.01-13.17 2.25-.07.01-.06.02-.05.01-.06.02-.06.02-.06.03-.06.02-.05.03-.05.04-.05.03-.05.03-.05.04-.05.04-.03.04-.05.04-.04.05-.04.04-.03.05-.04.05-.03.05-.03.05-.03.06-.02.05-.02.06-.02.05-.02.06-.01.06-.02.06-.01.06-.01.06v.19l.01.08.01.06.01.07.01.07.02.06.02.07.03.06.03.06.03.06.04.06.03.05.04.06.04.05.05.05.05.04.04.05.05.04.06.04.05.05.06.03.06.03.06.03.06.03.07.02.06.02.07.03.07.01.07.01.07.01h.07l.07.01h.06l.07-.01h.06l.06-.01zM256 17l36-6.57V9l-36 6.57V17zM290.5 34.24v.53l-.05.05h-.19L290 35H280.82l-.06-.05-.05-.05v-8.64l.05-.05H290.32V34.24zm-11.5 0v.53l-.05.05H269.5l-.05-.05V26.21H279V34.24zm-11.5 0v.53l-.06.05h-.19L267 35H257.81l-.05-.05-.05-.05V26.38l.05-.05H267.33V34.36zm23-9.75h-7.42L277.52 14l-2.1.37 5.36 10.12h-13.49l5-9.56-2.61.45-4.74 9.11H256.49l-.05.05-.05.05V43.15l.05.05.05.05H291.52l.05-.05.05-.05V24.59l-.05-.05-.05-.05H290.51zM36.6 38.76v-.8l-.06-.25-.07-.25-.08-.24-.19-.22-.11-.24-.09-.25-.13-.22-.14-.22-.15-.21-.16-.2-.17-.19-.17-.19-.18-.17-.19-.17-.2-.16-.21-.15-.21-.14-.22-.13-.23-.11-.23-.11-.24-.09-.28-.05-.25-.07-.25-.06h-2.12l-.26.06-.25.07-.24.08-.24.09-.24.11-.23.11-.22.13-.21.14-.21.15-.2.16-.19.17-.18.17-.17.19-.17.19-.16.2-.15.21-.13.22-.13.22-.12.23-.1.24-.1.24-.08.24-.07.25-.05.25-.05.26v1.61l.05.26.05.25.07.25.08.24.1.24.1.24.12.23.13.22.13.21.15.21.16.2.17.19.17.18.18.17.19.17.2.16.21.15.21.14.22.13.23.12.24.1.24.1.24.08.25.07.26.05h2.12l.25-.05.25-.07.24-.08.24-.1.23-.1.23-.12.22-.13.21-.14.21-.15.2-.16.19-.17.18-.17.17-.18.17-.19.16-.2.15-.21.14-.21.13-.22.11-.23.11-.24.09-.24.08-.24.07-.25.06-.25v-1.33zm-2.27.31v.88l-.06.14-.06.14-.06.13-.08.12-.08.12-.08.12-.09.12-.09.11-.1.1-.11.1-.11.1-.11.09-.12.08-.12.08-.13.07-.13.07-.14.06-.14.05h-2.25l-.13-.05-.14-.06-.13-.07-.13-.07-.12-.08-.12-.08-.11-.09-.11-.1-.1-.1-.1-.1-.1-.11-.09-.12-.08-.12-.08-.12-.07-.12-.07-.13-.06-.14-.05-.09v-2.13l.05-.14.06-.13.07-.13.07-.13.08-.12.08-.12.11-.1.1-.11.1-.1.1-.1.11-.1.11-.09.12-.09.12-.07.13-.08.13-.07.14-.06.13-.05h2.08l.14.05.14.06.13.07.13.08.12.07.12.09.11.09.11.1.11.1.1.1.09.11.09.11.08.12.08.12.08.13.06.13.06.13.06.14V39.07z"/></svg>