<svg xmlns="http://www.w3.org/2000/svg" viewBox="0 0 116.69 24"><path d="M44.35 6.55c0 1.23 1 1.71 2.05 1.71.71 0 1.81-.21 1.81-1.15s-1.39-1.16-2.76-1.53-2.76-.89-2.76-2.63c0-1.89 1.79-2.8 3.47-2.8 1.93 0 3.71.84 3.71 3h-2c-.06-1.12-.86-1.4-1.83-1.4a1.2 1.2 0 0 0-1.4 1.05c0 .71.44.8 2.77 1.4.67.17 2.75.6 2.75 2.7 0 1.7-1.34 3-3.86 3-2.05 0-4-1-3.95-3.29h2zm8.98-3.6h1.35v1.2h-1.35v3.33c0 .62.16.78.78.78a2.83 2.83 0 0 0 .57-.05v1.43a7.07 7.07 0 0 1-1.08.06c-1.13 0-2.12-.26-2.12-1.6v-4h-1.11V2.95h1.12v-2h1.84v2zm6.61 3.4a3.67 3.67 0 0 1-1.53.39 1.05 1.05 0 0 0-1.09 1 .91.91 0 0 0 1.13.86 1.37 1.37 0 0 0 1.49-1.54v-.71zm-4.26-1.4c.1-1.73 1.65-2.24 3.16-2.24 1.34 0 2.95.3 2.95 1.91v3.52A3.45 3.45 0 0 0 62 9.63h-1.85a2.74 2.74 0 0 1-.15-.68 3.08 3.08 0 0 1-2.26.83 2 2 0 0 1-2.29-2c0-1.52 1.14-1.88 2.29-2s2.18-.13 2.18-.88-.52-.95-1.17-.95a1 1 0 0 0-1.22 1h-1.85zm10.52-.82c-1.21 0-1.62 1-1.62 2.14s.48 2.15 1.62 2.15 1.58-1.06 1.58-2.17-.38-2.12-1.58-2.12m1.61 4.64a2.23 2.23 0 0 1-2 1c-2 0-3-1.74-3-3.59s1-3.48 3-3.48a2.31 2.31 0 0 1 2 1V.37h1.84v9.26h-1.84v-.86zm5.48-5.82h1.35v1.2h-1.35v3.33c0 .62.16.78.78.78a2.83 2.83 0 0 0 .57-.05v1.43a7.07 7.07 0 0 1-1.08.06c-1.13 0-2.12-.26-2.12-1.6v-4h-1.11V2.95h1.12v-2h1.84v2zm5.44 5.07l4.97-5.94h-4.58V.36h7.3v1.61l-4.97 5.95h5.1v1.71h-7.82V8.02zM91 .37h1.75v1.51H91V.37zm-2.68 0H90v1.51h-1.71V.37zm5.36 9.26H91.9v-.94a2.39 2.39 0 0 1-2.05 1.12c-2 0-2.45-1.1-2.45-2.76v-4.1h1.8v3.76c0 1.1.32 1.65 1.18 1.65s1.43-.56 1.43-1.92V2.95h1.84v6.68zm1.37-6.68h1.75v1.22A2.37 2.37 0 0 1 99 2.74a1.37 1.37 0 0 1 .4.06v1.72a3.36 3.36 0 0 0-.66-.06c-1.35 0-1.82 1-1.82 2.15v3h-1.87V2.95zm4.95 0h1.84v6.68H100V2.95zm1.84-1H100V.37h1.84v1.51zm5.8 3.33a1.26 1.26 0 0 0-1.36-1.15c-1.18 0-1.57 1.19-1.57 2.18s.38 2.11 1.53 2.11a1.42 1.42 0 0 0 1.47-1.36h1.78a3 3 0 0 1-3.23 2.75 3.26 3.26 0 0 1-3.39-3.44 3.32 3.32 0 0 1 3.43-3.63c1.58 0 3 .83 3.16 2.54h-1.81zm2.75-4.91h1.84v3.49a2.36 2.36 0 0 1 2-1.12c2 0 2.45 1.1 2.45 2.76v4.13h-1.84V5.84c0-1.1-.32-1.65-1.18-1.65s-1.43.56-1.43 1.92v3.52h-1.84V.37zm-77.78 12.7l-.54-2.12a1.18 1.18 0 0 1 .75-1.66 1 1 0 0 1 1 1 4 4 0 0 1-.82 2.27l-.38.51m-.15 9.14a.76.76 0 0 1 0 .2.62.62 0 0 1-.67.63.64.64 0 0 1 0-1.28l-.36-.56-.1-.17-1-1.61-.21-.33-.67-1a1.91 1.91 0 0 1-.17-.36.4.4 0 0 1 0-.08.84.84 0 0 1 0-.15.88.88 0 0 1 1.32-.76l-.11-.24-2.5-5.65 1.23-.9zm-6-.46l-.1.15-.37.52a4.78 4.78 0 0 1-.39.46.65.65 0 0 1-.44.18.64.64 0 1 1 .49-1.11v.07l.21-.6v-.07c.56-1.6 1.94-5.53 2-5.68a.93.93 0 0 1 .67-.62.65.65 0 0 1 .47 0l.42.91a1.17 1.17 0 0 0-1.13 1.28 2.28 2.28 0 0 0 .43 1.1zm.3-11l-.65.48-1.12.82a.7.7 0 0 1-.41.12h-.16a.8.8 0 0 1-.56-.65.65.65 0 0 1 .7-.72.76.76 0 0 1 .5.2l.65-.48.28-.22 2.74-2-.21-.87-1.39 1.05a3.78 3.78 0 0 1 .35-2.58 4.18 4.18 0 0 1 1.7-1.68 4.08 4.08 0 0 1 .52-.27h.87a1 1 0 0 0 1.1-.77 6.61 6.61 0 0 0 .14-1.23v-.74a3 3 0 0 1 2 2.49 3 3 0 0 1-1.22 2.67zM9.86 7.42l.24 2.53a1.5 1.5 0 0 0-.4.08l-1.21-.92 2.61-5.62.24 2.88h12.1l.24-2.88 2.62 5.62-1.22.92a1.51 1.51 0 0 0-.4-.08l.25-2.53H9.86zm13.86 2.73a1.53 1.53 0 0 0-.2 2.38l-.06.68-.12 1.53-.25 3a5.59 5.59 0 0 1-.26 1.34L11.54 8.27h12.33zm-11.43 9.8c-.09-.23-.19-.48-.27-.76h9.52l.8.76h-10zm9 1.62h-7.94a4.69 4.69 0 0 1-.61-.76h9.21a6.37 6.37 0 0 1-.66.76m-3.84 1.71a5.8 5.8 0 0 1-3-.85h5.94a5.72 5.72 0 0 1-2.93.85m-5.76-5.7h8.19l.79.76h-8.87c-.05-.24-.1-.5-.14-.76m-.19-1.63h6.71l.81.77h-7.44c0-.25-.06-.5-.08-.76m-.12-1.61h5.15l.79.76h-5.88c0-.25 0-.51-.06-.76m-.11-1.62h3.59l.79.76H11.3c0-.26 0-.52-.05-.76m.5-1.61h1.41l.79.76h-2.23a1.48 1.48 0 0 0 .07-.43 1.42 1.42 0 0 0 0-.33m-.68-.92c-.11-.71-.21-1.4-.21-1.4l1.36 1.45h-1.11l-.08-.06m-.75 2h-.16a.7.7 0 0 1-.41-.12l-1.06-.79-.69-.5-5.83-4.36A3 3 0 0 1 1 3.76a3 3 0 0 1 2-2.49v.74a7 7 0 0 0 .14 1.23 1 1 0 0 0 1.1.77h.86a4 4 0 0 1 .51.22 4.2 4.2 0 0 1 1.7 1.68 3.77 3.77 0 0 1 .35 2.58L6.21 7.4 6 8.27l2.74 2 .26.23.68.45a.76.76 0 0 1 .49-.2.65.65 0 0 1 .7.72.8.8 0 0 1-.57.65m-6 4.23l-.11.24a.9.9 0 0 1 .45-.12.88.88 0 0 1 .88.88.94.94 0 0 1 0 .15v.08a1.93 1.93 0 0 1-.17.36l-.67 1-.21.33-1 1.61-.11.17-.46.7a.64.64 0 0 1 0 1.28.62.62 0 0 1-.67-.63.75.75 0 0 1 0-.2L5.55 9.95l1.27.9zm1.89-1.29a.94.94 0 0 1 .67.62c.06.16 1.44 4.08 2 5.68v.07l.21.6v-.07a.65.65 0 1 1 .52 1.06.65.65 0 0 1-.44-.18 4.69 4.69 0 0 1-.39-.46l-.32-.43-.1-.15L6 18.41a2.29 2.29 0 0 0 .43-1.1 1.18 1.18 0 0 0-1.13-1.28l.42-.91a.65.65 0 0 1 .47 0M9.46 3.46a.65.65 0 0 1-.32-.56.68.68 0 0 1 .64-.65.65.65 0 0 1 .65.65.7.7 0 0 1-.08.32L8.44 7.37c0-.11 0-.28-.08-.52a4.12 4.12 0 0 0-.24-.8zm2.87-2.4v1H13v-1h.61l.08 1.62h-1.8l-.18-1.63h.62zm1.35 3.05H11.9l-.05-.84h1.79zm1-3.05v1h.59v-1h.58v1.62h-1.64l-.05-1.63h.53zm1.24 3.05h-1.66v-.84h1.68zm1.15-3.06v1h.64v-1h.56v1.62h-1.74V1.05h.56zm1.81 2.21h1.68v.84h-1.71zm0-2.21h.62v1h.59v-1h.53l-.05 1.63h-1.68zm-2.34 2.21h1.71v.84h-1.7v-.84zm.75 1.43h5.56l-.06 1H12l-.06-1h5.35zm3.86-1.43h1.79l-.05.84h-1.78zm.1-2.21h.61v1h.6l.05-1h.62L23 2.68h-1.8zM25 2.24a.68.68 0 0 1 .64.65.65.65 0 0 1-.32.56l1.33 2.58a4.11 4.11 0 0 0-.24.8c0 .24-.07.41-.08.52l-1.9-4.14a.7.7 0 0 1-.08-.32.65.65 0 0 1 .65-.65M2.72 10.95l-.55 2.12-.38-.51a4 4 0 0 1-.79-2.2 1 1 0 0 1 1-1 1.19 1.19 0 0 1 .72 1.59m30.86 4.71a.93.93 0 0 0-.25 0l-.42-1.51.22-.2a13.27 13.27 0 0 0 1.31-1.87 3.09 3.09 0 0 0 .24-2.21 1.8 1.8 0 0 0-1.82-1.44 1.69 1.69 0 0 0-1.57 1 2.64 2.64 0 0 0-.08 1.59l.73 2.93c-.22.29-.42.6-.55.77L30 9.32l3.11-2.29a3.67 3.67 0 0 0 1.18-4.55 3.73 3.73 0 0 0-2-1.89 3.52 3.52 0 0 0-.49-.14V.26a.34.34 0 0 0-.33-.24c-.31-.07-.4.07-.4.11v.19C30.3.24 28.68.25 28.68.25V1.8l.64.07a.17.17 0 0 1 .14.18.23.23 0 0 1-.18.21.35.35 0 0 1-.15 0l-2-.22.24.76q1.17.15 1.84.15h.06a.94.94 0 0 0 0-1.87V.95c.27 0 .6 0 1 .05a1 1 0 0 0 .25.45 2.52 2.52 0 0 0 .46.38v.22a5.28 5.28 0 0 1 0 .7c0 .32-.23.56-.92.59a9.28 9.28 0 0 1-1.48-.11v.49a5.08 5.08 0 0 0-.88.68 3.68 3.68 0 0 0-.65.81l-.81-1.61a1.44 1.44 0 0 0 .28-.85 1.52 1.52 0 0 0-2.71-.86l.13-1.52h-13.1L11 1.89a1.49 1.49 0 0 0-1.21-.58 1.51 1.51 0 0 0-1.53 1.44 1.43 1.43 0 0 0 .28.85l-.83 1.61a3.69 3.69 0 0 0-.65-.81 5.08 5.08 0 0 0-.88-.68v-.49a9.29 9.29 0 0 1-1.48.11c-.7 0-.89-.27-.92-.59a5.13 5.13 0 0 1 0-.7v-.23a2.56 2.56 0 0 0 .46-.38 1 1 0 0 0 .27-.49c.36 0 .69 0 1-.05v.22a.94.94 0 0 0 0 1.83h.06q.67 0 1.83-.16l.24-.76-2 .22h-.15a.23.23 0 0 1-.18-.21.17.17 0 0 1 .14-.18l.65-.06V.25s-1.62 0-2.38.07V.13s-.09-.18-.41-.11A.34.34 0 0 0 3 .26v.19a3.52 3.52 0 0 0-.46.15 3.71 3.71 0 0 0-2 1.89 3.67 3.67 0 0 0 1.14 4.54l3.1 2.29-1.39 5.42c-.13-.17-.32-.48-.55-.79l.73-2.93a2.64 2.64 0 0 0-.08-1.57 1.69 1.69 0 0 0-1.57-1A1.79 1.79 0 0 0 .1 9.85a3.07 3.07 0 0 0 .24 2.21 13.33 13.33 0 0 0 1.31 1.89l.21.27-.41 1.5a.93.93 0 0 0-.25 0 .85.85 0 0 0-.89.84.88.88 0 0 0 .89.88.87.87 0 0 0 .75-.49 6.32 6.32 0 0 0 .41-1.22l.2-.68.57.75-1.69 6.37A1.51 1.51 0 0 0 3 23.95a1.51 1.51 0 0 0 1.51-1.53 1.17 1.17 0 0 0-.51-.94l1.44-2.29 2.72 3.84a2.34 2.34 0 0 0 .41.47 1.51 1.51 0 0 0 1.1.45 1.59 1.59 0 0 0 1.53-1.52 1.33 1.33 0 0 0-1.53-1.38H9.6l-1.92-5.5a2.43 2.43 0 0 0-.56-.92 1.14 1.14 0 0 0-.85-.25l-.27.06 1.44-3.11 1.81 1.36a1.52 1.52 0 0 0 1 .34h.15l.5 5.11a6.45 6.45 0 0 0 2.22 4.28 6.52 6.52 0 0 0 10.74-4.3l.5-5.11h.18a1.52 1.52 0 0 0 1-.34l1.8-1.36 1.44 3.11h-.26a1.14 1.14 0 0 0-.85.25 2.45 2.45 0 0 0-.56.92l-1.92 5.5h-.08a1.33 1.33 0 0 0-1.54 1.39 1.59 1.59 0 0 0 1.54 1.47 1.51 1.51 0 0 0 1.08-.45 2.39 2.39 0 0 0 .41-.47l2.72-3.84 1.44 2.29a1.17 1.17 0 0 0-.44.93 1.53 1.53 0 1 0 3-.24c0-.08-1.33-5-1.68-6.32l.57-.75.2.68a6.24 6.24 0 0 0 .43 1.17.89.89 0 0 0 1.63-.47.85.85 0 0 0-.89-.84" fill="#007cbe"/></svg>
