<svg xmlns="http://www.w3.org/2000/svg" xmlns:xlink="http://www.w3.org/1999/xlink" width="182" height="36" viewBox="27.681 3.81 182 36" enable-background="new 27.681 3.81 182 36"><defs><path id="a" d="M49.676 33.267c2.357-.029 4.594-.374 6.574-1.039.498-.168.974-.354 1.424-.555-.551 1.345-1.36 2.467-2.415 3.301-2.081 1.532-4.536 2.583-7.201 2.984.666-1.152 1.204-2.78 1.618-4.691m-11.093 3.268l-.162-.107c-.927-.452-1.302-2.519-.819-5.68 1.782.801 3.722 1.436 5.761 1.871 1.545.33 3.085.534 4.59.613-.738 3.208-1.684 4.893-2.311 4.893l-.117.013c-2.484-.017-4.838-.588-6.942-1.603m-8.607-10.219c-.143-.542-.232-1.095-.269-1.657.558.794 1.237 1.568 2.046 2.316 1.222 1.128 2.672 2.138 4.288 3.004-.33 1.846-.423 3.519-.215 4.867-2.785-2.106-4.869-5.087-5.85-8.53m20.751-4.483c0-.652-.01-1.307-.029-1.959 2.077-.138 4-.678 5.574-1.583 1.458 2.884 2.24 5.927 2.234 8.799-.001.832-.073 1.623-.205 2.37-.75.459-1.613.857-2.584 1.185-1.724.58-3.666.896-5.725.949.496-2.967.735-6.412.735-9.761m-7.014 9.155c-2.068-.443-4.022-1.1-5.791-1.931.581-2.614 1.663-5.781 3.377-9.297.249-.509.503-1.01.762-1.5 1.199.538 2.504.965 3.872 1.257 1.039.223 2.079.344 3.096.379.019.626.027 1.271.027 1.937 0 3.931-.314 7.194-.768 9.744-1.492-.065-3.029-.26-4.575-.589m-10.826-5.238c-1.418-1.31-2.393-2.698-2.89-4.076.394-1.544 1.156-3.094 2.277-4.579 1.063-1.408 2.386-2.676 3.903-3.766.438.791 1.051 1.563 1.832 2.295.742.695 1.607 1.325 2.566 1.876-.264.501-.522 1.01-.774 1.528-1.481 3.035-2.69 6.292-3.4 9.246-1.319-.743-2.504-1.589-3.514-2.524m16.706-15.513c1.898 1.413 3.638 3.236 5.093 5.368.276.404.536.815.783 1.23-1.333.771-3.021 1.232-4.84 1.361-.154-2.881-.495-5.653-1.036-7.959m-3.31 7.648c-1.208-.257-2.356-.628-3.414-1.093 1.558-2.725 3.261-5.094 4.942-6.855.525 2.066.965 4.844 1.151 8.288-.885-.037-1.785-.148-2.679-.34m-7.133-3.479c-.691-.646-1.215-1.32-1.568-1.997 1.564-.941 3.295-1.708 5.139-2.263 1.097-.33 2.207-.574 3.314-.743-1.598 1.791-3.194 4.066-4.657 6.636-.836-.483-1.585-1.03-2.228-1.633m-3.59-5.319l-.066.258c-.169.787-.149 1.594.049 2.394-1.796 1.239-3.358 2.704-4.602 4.35-.379.501-.718 1.013-1.025 1.528.925-3.418 2.937-6.392 5.644-8.53m1.566.606c.185-.866.706-1.64 1.511-2.28 1.949-.582 4.216-.442 6.599.43-1.003.174-2.006.406-2.995.705-1.841.552-3.579 1.308-5.171 2.226-.036-.365-.019-.727.056-1.081m13.543-2.199c.573-.371 1.101-.625 1.542-.73.837.335 1.667.764 2.454 1.306-1.263-.316-2.606-.508-3.996-.576m-2.812-1.787c.677.076 1.4.192 2.143.365-.465.25-.947.562-1.438.937-.218-.493-.453-.927-.705-1.302m-1.809.655c-.755-.289-1.501-.513-2.237-.673.59-.066 1.187-.104 1.795-.104.284.003.633.345.998 1.006l-.556-.229m-18.367 15.5c0 1.706.245 3.355.692 4.92l.084.315.022.058c2.264 7.321 9.096 12.654 17.15 12.654 3.726 0 7.189-1.142 10.061-3.092l.084-.049c.17-.116.335-.238.495-.366 3.303-2.439 5.741-5.982 6.769-10.081.058-.188.108-.38.15-.574l.015-.137c.245-1.179.373-2.399.373-3.647 0-2.422-.474-4.773-1.411-6.985-.18-.425-.669-.624-1.094-.443-.425.178-.623.669-.444 1.093.849 2.005 1.279 4.137 1.279 6.335 0 1.347-.167 2.655-.478 3.908-.247.79-.68 1.521-1.279 2.185.015-.283.024-.569.025-.862.007-3.202-.879-6.584-2.521-9.763 1.204-1.034 1.973-2.312 2.236-3.741.084-.453-.216-.888-.669-.972-.454-.085-.889.215-.973.669-.174.945-.665 1.812-1.433 2.548-.239-.395-.487-.786-.75-1.171-1.465-2.148-3.206-4.006-5.111-5.489 2.515.166 4.839.775 6.711 1.821.293.167.683.162.958-.067.354-.295.402-.823.105-1.177-2.689-3.761-7.34-5.836-13.1-5.836-9.894-.001-17.946 8.05-17.946 17.946"/></defs><clipPath id="b"><use xlink:href="#a" overflow="visible"/></clipPath><radialGradient id="c" cx="-136.112" cy="-310.587" r=".489" gradientTransform="matrix(60.742 0 0 60.743 8329.744 18876.488)" gradientUnits="userSpaceOnUse"><stop offset="0" stop-color="#fff"/><stop offset=".06" stop-color="#E7F6FD"/><stop offset=".183" stop-color="#AFE2FA"/><stop offset=".359" stop-color="#37C6F4"/><stop offset=".544" stop-color="#00AEEF"/><stop offset="1" stop-color="#002F54"/></radialGradient><path clip-path="url(#b)" fill="url(#c)" d="M27.681 3.915h35.895v35.894h-35.895z"/><g fill="#00AEEF"><path d="M70.711 32.81v-6.097h1.202v6.097h-1.202zM72.985 32.81v-6.097h2.307c1.247 0 1.968.472 1.968 1.61 0 1.081-.643 1.266-.949 1.266v.016c.409 0 1.36.358 1.36 1.495 0 1.274-1.002 1.71-2.126 1.71h-2.56zm2.169-3.552c.652 0 .87-.323.87-.793 0-.489-.323-.775-1.038-.775h-.801v1.568h.969zm.128 2.576c.602 0 1.056-.189 1.056-.861 0-.628-.463-.87-1.08-.87h-1.072v1.731h1.096zM83.485 32.793s-.225.06-.627.06c-1.847 0-1.341-2.325-2.631-2.325h-.642v2.282h-1.202v-6.097h2.141c1.498 0 2.3.55 2.3 1.918 0 .897-.584 1.373-1.055 1.549.627.514.663 1.697 1.463 1.697h.252v.916zm-3.1-3.17c.724 0 1.255-.333 1.255-.958 0-.609-.427-.978-1.158-.978h-.897v1.936h.8zM84.015 32.81v-6.097h1.786c1.601 0 3.03.864 3.03 3.154 0 2.168-1.29 2.942-2.771 2.942h-2.045zm2.036-.976c.934 0 1.585-.679 1.585-1.985 0-1.351-.573-2.161-1.854-2.161h-.566v4.146h.835zM92.402 31.417c-.627 0-1.123-.505-1.123-1.133 0-.627.496-1.131 1.123-1.131.626 0 1.131.504 1.131 1.131 0 .628-.505 1.133-1.131 1.133zM96.258 32.81v-6.097h1.202v6.097h-1.202zM98.529 32.81v-6.097h1.785c1.603 0 3.031.864 3.031 3.154 0 2.168-1.288 2.942-2.769 2.942h-2.047zm2.039-.976c.933 0 1.587-.679 1.587-1.985 0-1.351-.575-2.161-1.855-2.161h-.566v4.146h.834zM107.318 31.288h-2.163l-.514 1.521h-1.254l2.239-6.096h1.227l2.239 6.096h-1.245l-.529-1.521zm-1.839-.916h1.533l-.775-2.213-.758 2.213z"/></g><g fill="#002F54"><path d="M67.526 11.917h9.062v1.859h-3.328v9.324h-2.403v-9.324h-3.33v-1.859zM77.861 23.1v-11.183h2.402v4.414h4.229v-4.414h2.431v11.183h-2.4v-4.911h-4.26v4.911h-2.402zM88.879 11.917h7.498v1.859h-5.095v2.618h4.771v1.858h-4.771v2.99h5.266v1.858h-7.668v-11.183zM108.306 11.917h2.709l1.952 8.411h.031l1.798-8.411h2.292l-2.85 11.183h-2.663l-2.013-8.52h-.031l-2.171 8.52h-2.724l-2.726-11.183h2.479l1.718 8.411h.033l2.166-8.411zM117.904 17.509c0-3.299 1.672-5.826 5.373-5.826 3.7 0 5.375 2.526 5.375 5.826s-1.675 5.822-5.375 5.822c-3.703 0-5.373-2.523-5.373-5.822zm2.553 0c0 1.918.45 4.087 2.819 4.087 2.37 0 2.82-2.169 2.82-4.087 0-1.922-.45-4.092-2.82-4.092-2.369 0-2.819 2.171-2.819 4.092zM132.638 23.1h-2.402v-11.183h4.754c1.922.015 3.889.634 3.889 2.913 0 1.455-.945 2.417-2.323 2.71v.032c1.844.201 1.844 1.331 2.045 2.881.11.713.201 2.03.65 2.647h-2.649c-.2-.99-.31-1.997-.417-3.005-.063-.618-.219-1.47-1.007-1.5h-2.539v4.505h-.001zm0-6.366h2.011c1.056-.018 1.674-.542 1.674-1.535 0-.99-.618-1.409-1.674-1.424h-2.011v2.959zM140.712 23.1v-11.183h2.402v9.325h4.848v1.858h-7.25zM149.265 11.917h3.812c3.483-.03 5.652 1.703 5.652 5.592 0 3.887-2.169 5.621-5.652 5.59h-3.812v-11.182zm2.4 9.324h1.239c2.852.031 3.271-1.953 3.271-3.732 0-1.782-.419-3.764-3.271-3.733h-1.239v7.465zM164.807 23.1v-11.183h4.198c1.998-.124 4.043.714 4.043 2.897 0 1.223-.854 2.076-1.968 2.446v.032c1.411.295 2.462 1.271 2.462 2.911 0 2.215-2.79 3.022-4.507 2.897h-4.228zm4.275-1.859c1.131 0 1.905-.202 1.905-1.487s-.773-1.487-1.905-1.487h-1.876v2.975h1.876zm0-4.831c1.007 0 1.563-.419 1.563-1.317 0-.9-.557-1.316-1.563-1.316h-1.876v2.634l1.876-.001zM174.292 23.1l4.044-11.183h2.85l3.886 11.183h-2.414l-.806-2.37h-4.43l-.838 2.37h-2.292zm6.955-4.228l-1.533-4.771h-.032l-1.641 4.771h3.206zM192.993 23.1l-4.415-9.294-.031.032v9.262h-2.245v-11.183h3.561l4.262 8.798.03-.033v-8.766h2.246v11.184h-3.408zM200.773 16.75h.031l3.718-4.833h2.803l-4.105 5.003 4.462 6.18h-2.989l-3.888-5.7h-.031v5.7h-2.4v-11.183h2.4v4.833z"/></g></svg>